<svg width="142" height="40" viewBox="0 0 142 40" fill="none" xmlns="http://www.w3.org/2000/svg">
<rect x="0.5" y="0.5" width="141" height="39" rx="4.5" fill="white" stroke="#E9EBED"/>
<path d="M31.7058 19.7297C31.6753 16.3447 34.4831 14.6978 34.6115 14.6211C33.0213 12.3073 30.5565 11.9912 29.6904 11.966C27.6203 11.7486 25.6123 13.2022 24.5577 13.2022C23.4822 13.2022 21.8583 11.987 20.1081 12.0227C17.8559 12.0574 15.749 13.3587 14.5934 15.3794C12.2087 19.4997 13.9872 25.5546 16.2721 28.8851C17.415 30.5173 18.7505 32.3374 20.4986 32.2733C22.2087 32.204 22.8476 31.1863 24.9114 31.1863C26.9562 31.1863 27.5561 32.2733 29.3389 32.2324C31.1743 32.204 32.3299 30.5939 33.4328 28.9481C34.7536 27.0797 35.284 25.2375 35.3051 25.1429C35.263 25.1282 31.7416 23.786 31.7058 19.7297ZM28.338 9.7751C29.2579 8.62713 29.8872 7.06535 29.7125 5.48047C28.3812 5.53928 26.7163 6.39947 25.7575 7.52223C24.9093 8.5116 24.1515 10.1332 24.3473 11.6583C25.8428 11.7696 27.3782 10.9052 28.338 9.7751Z" fill="black"/>
<path d="M56.4802 31.942H54.0901L52.7809 27.8364H48.2303L46.9831 31.942H44.6563L49.1659 17.9647H51.9506L56.4802 31.942ZM52.3863 26.1139L51.2023 22.4641C51.0771 22.0913 50.8413 21.2133 50.4961 19.8311H50.454C50.3151 20.4255 50.093 21.3036 49.7889 22.4641L48.6249 26.1139H52.3863ZM68.0547 26.7787C68.0547 28.4928 67.5885 29.8477 66.655 30.8423C65.8194 31.7277 64.7806 32.1699 63.5419 32.1699C62.2043 32.1699 61.2424 31.6941 60.6583 30.7404V36.0286H58.4145V25.176C58.4145 24.0994 58.3861 22.9956 58.3314 21.8634H60.3047L60.4299 23.4609H60.472C61.2203 22.2572 62.3558 21.6554 63.8797 21.6554C65.0711 21.6554 66.0656 22.1249 66.8613 23.0649C67.6558 24.007 68.0547 25.2443 68.0547 26.7787ZM65.7688 26.8607C65.7688 25.8797 65.5478 25.071 65.1037 24.4334C64.6185 23.7707 63.9671 23.4388 63.1504 23.4388C62.5968 23.4388 62.0938 23.6237 61.6444 23.9881C61.194 24.3557 60.8993 24.8357 60.7614 25.4302C60.6999 25.6525 60.6649 25.8813 60.6572 26.1118V27.7933C60.6572 28.5254 60.8825 29.144 61.3329 29.6502C61.7833 30.1544 62.3685 30.4075 63.0883 30.4075C63.9334 30.4075 64.5912 30.0808 65.0616 29.4328C65.5331 28.7827 65.7688 27.9256 65.7688 26.8607ZM79.6702 26.7787C79.6702 28.4928 79.204 29.8477 78.2705 30.8423C77.4339 31.7277 76.3962 32.1699 75.1564 32.1699C73.8188 32.1699 72.8569 31.6941 72.2728 30.7404V36.0286H70.029V25.176C70.029 24.0994 70.0006 22.9956 69.9459 21.8634H71.9192L72.0444 23.4609H72.0865C72.8337 22.2572 73.9693 21.6554 75.4943 21.6554C76.6845 21.6554 77.6791 22.1249 78.4768 23.0649C79.2703 24.007 79.6702 25.2443 79.6702 26.7787ZM77.3833 26.8607C77.3833 25.8797 77.1613 25.071 76.7172 24.4334C76.232 23.7707 75.5827 23.4388 74.766 23.4388C74.2124 23.4388 73.7094 23.6237 73.2579 23.9881C72.8074 24.3557 72.5138 24.8357 72.3759 25.4302C72.3075 25.7074 72.2707 25.9332 72.2707 26.1118V27.7933C72.2707 28.5254 72.497 29.144 72.9453 29.6502C73.3957 30.1533 73.9809 30.4075 74.7028 30.4075C75.549 30.4075 76.2067 30.0808 76.6761 29.4328C77.1476 28.7827 77.3833 27.9256 77.3833 26.8607ZM92.6571 28.0212C92.6571 29.2112 92.2404 30.1785 91.4121 30.9253C90.5007 31.7403 89.2283 32.1489 87.5971 32.1489C86.09 32.1489 84.8818 31.859 83.9704 31.2782L84.4893 29.4118C85.4733 29.9937 86.5541 30.2835 87.7307 30.2835C88.5769 30.2835 89.2346 30.0924 89.704 29.7132C90.1745 29.333 90.4123 28.8247 90.4123 28.1903C90.4123 27.6221 90.2155 27.1463 89.8293 26.7588C89.4409 26.3723 88.7989 26.012 87.897 25.6812C85.4449 24.7685 84.2178 23.4336 84.2178 21.6775C84.2178 20.5306 84.6514 19.5916 85.5164 18.8575C86.3815 18.1244 87.5287 17.7578 88.9558 17.7578C90.2302 17.7578 91.2921 17.9794 92.1351 18.4216L91.5721 20.247C90.7785 19.8185 89.8829 19.6042 88.881 19.6042C88.0896 19.6042 87.4687 19.7985 87.0246 20.185C86.651 20.5306 86.4615 20.9517 86.4615 21.4517C86.4615 22.0031 86.6773 22.461 87.1066 22.8202C87.4792 23.151 88.1591 23.5113 89.142 23.8978C90.3481 24.383 91.2342 24.9481 91.8015 25.5972C92.373 26.2462 92.6571 27.056 92.6571 28.0212ZM100.095 23.5438H97.6214V28.4371C97.6214 29.6817 98.0571 30.3025 98.9306 30.3025C99.3316 30.3025 99.6641 30.2688 99.9272 30.1985L99.9893 31.8989C99.5473 32.0638 98.9653 32.1468 98.2444 32.1468C97.3583 32.1468 96.6658 31.8768 96.1659 31.337C95.6681 30.7971 95.4176 29.8928 95.4176 28.6199V23.5396H93.9442V21.8592H95.4176V20.0138L97.6214 19.35V21.8592H100.095V23.5438ZM111.231 26.8197C111.231 28.3689 110.787 29.6408 109.901 30.6354C108.974 31.6594 107.74 32.1699 106.203 32.1699C104.719 32.1699 103.539 31.6794 102.659 30.6995C101.779 29.7174 101.34 28.4802 101.34 26.9877C101.34 25.426 101.794 24.1467 102.7 23.1521C103.609 22.1564 104.832 21.6586 106.369 21.6586C107.851 21.6586 109.041 22.1501 109.942 23.1311C110.803 24.0826 111.231 25.3115 111.231 26.8197ZM108.905 26.8712C108.905 25.948 108.705 25.156 108.304 24.4933C107.834 23.693 107.161 23.2928 106.288 23.2928C105.389 23.2928 104.7 23.693 104.231 24.4933C103.829 25.156 103.629 25.9616 103.629 26.9132C103.629 27.8374 103.829 28.6314 104.231 29.2921C104.716 30.0924 105.392 30.4926 106.269 30.4926C107.127 30.4926 107.799 30.084 108.286 29.2721C108.698 28.5936 108.905 27.7965 108.905 26.8712ZM118.528 23.8327C118.294 23.7906 118.058 23.7699 117.82 23.7707C117.031 23.7707 116.421 24.0669 115.991 24.6635C115.619 25.1886 115.431 25.8524 115.431 26.6537V31.942H113.188V25.0374C113.19 23.9794 113.168 22.9215 113.122 21.8644H115.077L115.159 23.7928H115.221C115.459 23.13 115.831 22.5954 116.343 22.1953C116.811 21.8456 117.38 21.6563 117.965 21.6554C118.172 21.6554 118.359 21.6701 118.526 21.6964L118.528 23.8327ZM128.563 26.4258C128.568 26.7662 128.541 27.1064 128.48 27.4415H121.749C121.774 28.4371 122.101 29.1996 122.726 29.7248C123.293 30.1932 124.027 30.4285 124.927 30.4285C125.924 30.4285 126.833 30.2709 127.651 29.9527L128.003 31.5061C127.047 31.922 125.919 32.1289 124.617 32.1289C123.051 32.1289 121.822 31.6689 120.927 30.7509C120.035 29.8319 119.587 28.5968 119.587 27.0497C119.587 25.531 120.003 24.2654 120.836 23.2561C121.707 22.1785 122.885 21.6397 124.367 21.6397C125.822 21.6397 126.924 22.1785 127.672 23.2561C128.265 24.1099 128.563 25.1686 128.563 26.4258ZM126.423 25.845C126.439 25.1802 126.291 24.6078 125.987 24.1236C125.599 23.4997 125.001 23.1888 124.2 23.1888C123.467 23.1888 122.869 23.4924 122.414 24.1015C122.041 24.5857 121.819 25.1676 121.75 25.8429L126.423 25.845Z" fill="black"/>
<path d="M47.9297 10.1309H48.8042C49.6875 10.1309 50.1929 10.5352 50.1929 11.1812C50.1929 11.8184 49.6567 12.271 48.835 12.271C48.0132 12.271 47.4551 11.8667 47.3979 11.2471H46.4531C46.5103 12.3633 47.4551 13.106 48.835 13.106C50.1753 13.106 51.2036 12.3018 51.2036 11.2295C51.2036 10.3374 50.6147 9.77051 49.793 9.68701V9.6123C50.5005 9.44971 50.9839 8.85645 50.9839 8.16211C50.9839 7.16016 50.105 6.45703 48.8569 6.45703C47.5342 6.45703 46.6816 7.16016 46.6157 8.29395H47.5474C47.6045 7.66113 48.0879 7.27881 48.8262 7.27881C49.5732 7.27881 50.0127 7.66992 50.0127 8.26758C50.0127 8.87842 49.5293 9.30908 48.7778 9.30908H47.9297V10.1309Z" fill="black"/>
<path d="M53.9193 13.0312C54.5477 13.0312 55.0706 12.7588 55.3563 12.2754H55.431V12.9521H56.3406V9.68701C56.3406 8.68506 55.6639 8.0874 54.4642 8.0874C53.3787 8.0874 52.6053 8.61035 52.5086 9.41455H53.4227C53.5281 9.06738 53.8929 8.86963 54.4202 8.86963C55.0662 8.86963 55.4002 9.16406 55.4002 9.68701V10.1045L54.1038 10.1836C52.9656 10.2539 52.324 10.7505 52.324 11.6074C52.324 12.4775 52.9964 13.0312 53.9193 13.0312ZM54.161 12.271C53.6468 12.271 53.2733 12.0117 53.2733 11.5679C53.2733 11.1328 53.5721 10.8999 54.2313 10.856L55.4002 10.7769V11.1899C55.4002 11.8052 54.8729 12.271 54.161 12.271Z" fill="black"/>
<path d="M61.0997 8.93555V8.17969H57.9489V12.9521H58.8937V8.93555H61.0997Z" fill="black"/>
<path d="M64.8877 8.09619C64.2373 8.09619 63.6748 8.42578 63.3847 8.9707H63.3144V8.17969H62.4047V14.543H63.3496V12.2314H63.4243C63.6748 12.7368 64.2153 13.0312 64.8964 13.0312C66.1049 13.0312 66.874 12.0732 66.874 10.5659C66.874 9.0498 66.1049 8.09619 64.8877 8.09619ZM64.6196 12.2227C63.8286 12.2227 63.332 11.5854 63.332 10.5659C63.332 9.54199 63.8286 8.90479 64.624 8.90479C65.4238 8.90479 65.9028 9.52881 65.9028 10.5659C65.9028 11.603 65.4238 12.2227 64.6196 12.2227Z" fill="black"/>
<path d="M68.5701 14.6836C69.5457 14.6836 69.9983 14.3188 70.407 13.1719L72.1912 8.17969H71.1892L69.9939 12.0029H69.9192L68.7195 8.17969H67.6912L69.4226 12.9653L69.3523 13.2114C69.1897 13.7168 68.9348 13.9058 68.4866 13.9058C68.3987 13.9058 68.2537 13.9014 68.179 13.8882V14.6616C68.2669 14.6748 68.491 14.6836 68.5701 14.6836Z" fill="black"/>
<path d="M74.9596 13.04C76.1373 13.04 76.9107 12.4292 76.9107 11.5415C76.9107 11.0054 76.5855 10.623 75.9352 10.4912V10.4165C76.4361 10.3022 76.7481 9.89355 76.7481 9.39697C76.7481 8.60596 76.089 8.0874 74.9859 8.0874C73.8829 8.0874 73.2018 8.63232 73.1007 9.4541H74.0147C74.0719 9.08496 74.4366 8.84766 74.964 8.84766C75.5396 8.84766 75.8209 9.12451 75.8209 9.49365C75.8209 9.9375 75.5265 10.1704 74.9464 10.1704H74.2389V10.8647H74.9508C75.6144 10.8647 75.9703 11.0845 75.9703 11.5547C75.9703 11.9854 75.5924 12.2798 74.9508 12.2798C74.3927 12.2798 74.006 12.0557 73.9137 11.6558H72.9732C73.0611 12.5391 73.8829 13.04 74.9596 13.04Z" fill="black"/>
<path d="M79.2572 12.9521L81.4413 9.59033H81.516V12.9521H82.4521V8.17969H81.516L79.332 11.5283H79.2572V8.17969H78.3212V12.9521H79.2572Z" fill="black"/>
<path d="M87.6594 8.17969H83.6999V8.93555H85.2073V12.9521H86.1521V8.93555H87.6594V8.17969Z" fill="black"/>
<path d="M88.9029 12.9521H90.7925C91.9 12.9521 92.6075 12.3149 92.6075 11.3042C92.6075 10.2979 91.9 9.66064 90.7925 9.66064H89.8477V8.17969H88.9029V12.9521ZM90.7222 10.4121C91.2935 10.4121 91.667 10.7637 91.667 11.3042C91.667 11.8403 91.2979 12.1963 90.7222 12.1963H89.8477V10.4121H90.7222Z" fill="black"/>
<path d="M98.7551 12.9521C99.8054 12.9521 100.434 12.4072 100.434 11.5854C100.434 11.0142 100.029 10.5835 99.4099 10.5088V10.4341C99.8801 10.3462 100.218 9.90234 100.218 9.41016C100.218 8.66309 99.6691 8.17969 98.7331 8.17969H96.5754V12.9521H98.7551ZM97.5114 8.87842H98.5529C99.0539 8.87842 99.2912 9.1377 99.2912 9.52441C99.2912 9.95068 99.0187 10.1792 98.4475 10.1792H97.5114V8.87842ZM97.5114 10.8647H98.5222C99.155 10.8647 99.4802 11.0889 99.4802 11.5503C99.4802 11.9941 99.1901 12.249 98.6408 12.249H97.5114V10.8647Z" fill="black"/>
</svg>
