<svg width="142" height="40" viewBox="0 0 142 40" fill="none" xmlns="http://www.w3.org/2000/svg">
<rect x="0.5" y="0.5" width="141" height="39" rx="4.5" fill="white" stroke="#E9EBED"/>
<path d="M67.8046 21.7508C65.4046 21.7508 63.5046 23.5508 63.5046 26.0508C63.5046 28.4508 65.4046 30.3508 67.8046 30.3508C70.2046 30.3508 72.1046 28.5508 72.1046 26.0508C72.1046 23.4508 70.2046 21.7508 67.8046 21.7508ZM67.8046 28.5508C66.5046 28.5508 65.4046 27.4508 65.4046 25.9508C65.4046 24.4508 66.5046 23.3508 67.8046 23.3508C69.1046 23.3508 70.2046 24.3508 70.2046 25.9508C70.2046 27.4508 69.1046 28.5508 67.8046 28.5508ZM58.5046 21.7508C56.1046 21.7508 54.2046 23.5508 54.2046 26.0508C54.2046 28.4508 56.1046 30.3508 58.5046 30.3508C60.9046 30.3508 62.8046 28.5508 62.8046 26.0508C62.8046 23.4508 60.9046 21.7508 58.5046 21.7508ZM58.5046 28.5508C57.2046 28.5508 56.1046 27.4508 56.1046 25.9508C56.1046 24.4508 57.2046 23.3508 58.5046 23.3508C59.8046 23.3508 60.9046 24.3508 60.9046 25.9508C60.9046 27.4508 59.8046 28.5508 58.5046 28.5508ZM47.4046 23.0508V24.8508H51.7046C51.6046 25.8508 51.2046 26.6508 50.7046 27.1508C50.1046 27.7508 49.1046 28.4508 47.4046 28.4508C44.7046 28.4508 42.7046 26.3508 42.7046 23.6508C42.7046 20.9508 44.8046 18.8508 47.4046 18.8508C48.8046 18.8508 49.9046 19.4508 50.7046 20.1508L52.0046 18.8508C50.9046 17.8508 49.5046 17.0508 47.5046 17.0508C43.9046 17.0508 40.8046 20.0508 40.8046 23.6508C40.8046 27.2508 43.9046 30.2508 47.5046 30.2508C49.5046 30.2508 50.9046 29.6508 52.1046 28.3508C53.3046 27.1508 53.7046 25.4508 53.7046 24.1508C53.7046 23.7508 53.7046 23.3508 53.6046 23.0508H47.4046ZM92.8046 24.4508C92.4046 23.4508 91.4046 21.7508 89.2046 21.7508C87.0046 21.7508 85.2046 23.4508 85.2046 26.0508C85.2046 28.4508 87.0046 30.3508 89.4046 30.3508C91.3046 30.3508 92.5046 29.1508 92.9046 28.4508L91.5046 27.4508C91.0046 28.1508 90.4046 28.6508 89.4046 28.6508C88.4046 28.6508 87.8046 28.2508 87.3046 27.3508L93.0046 24.9508L92.8046 24.4508ZM87.0046 25.8508C87.0046 24.2508 88.3046 23.3508 89.2046 23.3508C89.9046 23.3508 90.6046 23.7508 90.8046 24.2508L87.0046 25.8508ZM82.3046 29.9508H84.2046V17.4508H82.3046V29.9508ZM79.3046 22.6508C78.8046 22.1508 78.0046 21.6508 77.0046 21.6508C74.9046 21.6508 72.9046 23.5508 72.9046 25.9508C72.9046 28.3508 74.8046 30.1508 77.0046 30.1508C78.0046 30.1508 78.8046 29.6508 79.2046 29.1508H79.3046V29.7508C79.3046 31.3508 78.4046 32.2508 77.0046 32.2508C75.9046 32.2508 75.1046 31.4508 74.9046 30.7508L73.3046 31.4508C73.8046 32.5508 75.0046 33.9508 77.1046 33.9508C79.3046 33.9508 81.1046 32.6508 81.1046 29.5508V21.9508H79.3046V22.6508ZM77.1046 28.5508C75.8046 28.5508 74.7046 27.4508 74.7046 25.9508C74.7046 24.4508 75.8046 23.3508 77.1046 23.3508C78.4046 23.3508 79.4046 24.4508 79.4046 25.9508C79.4046 27.4508 78.4046 28.5508 77.1046 28.5508ZM101.505 17.4508H97.0046V29.9508H98.9046V25.2508H101.505C103.605 25.2508 105.605 23.7508 105.605 21.3508C105.605 18.9508 103.605 17.4508 101.505 17.4508ZM101.605 23.4508H98.9046V19.1508H101.605C103.005 19.1508 103.805 20.3508 103.805 21.2508C103.705 22.3508 102.905 23.4508 101.605 23.4508ZM113.105 21.6508C111.705 21.6508 110.305 22.2508 109.805 23.5508L111.505 24.2508C111.905 23.5508 112.505 23.3508 113.205 23.3508C114.205 23.3508 115.105 23.9508 115.205 24.9508V25.0508C114.905 24.8508 114.105 24.5508 113.305 24.5508C111.505 24.5508 109.705 25.5508 109.705 27.3508C109.705 29.0508 111.205 30.1508 112.805 30.1508C114.105 30.1508 114.705 29.5508 115.205 28.9508H115.305V29.9508H117.105V25.1508C116.905 22.9508 115.205 21.6508 113.105 21.6508ZM112.905 28.5508C112.305 28.5508 111.405 28.2508 111.405 27.4508C111.405 26.4508 112.505 26.1508 113.405 26.1508C114.205 26.1508 114.605 26.3508 115.105 26.5508C114.905 27.7508 113.905 28.5508 112.905 28.5508ZM123.405 21.9508L121.305 27.3508H121.205L119.005 21.9508H117.005L120.305 29.5508L118.405 33.7508H120.305L125.405 21.9508H123.405ZM106.605 29.9508H108.505V17.4508H106.605V29.9508Z" fill="black"/>
<path d="M10.3984 7.44922C10.0984 7.74922 9.89844 8.24922 9.89844 8.84922V30.9492C9.89844 31.5492 10.0984 32.0492 10.3984 32.3492L10.4984 32.4492L22.8984 20.0492V19.9492V19.8492L10.3984 7.44922Z" fill="url(#paint0_linear_28_254)"/>
<path d="M26.9984 24.25L22.8984 20.15V19.95V19.85L26.9984 15.75L27.0984 15.85L31.9984 18.65C33.3984 19.45 33.3984 20.75 31.9984 21.55L26.9984 24.25Z" fill="url(#paint1_linear_28_254)"/>
<path d="M27.0984 24.1492L22.8984 19.9492L10.3984 32.4492C10.8984 32.9492 11.5984 32.9492 12.4984 32.5492L27.0984 24.1492Z" fill="url(#paint2_linear_28_254)"/>
<path d="M27.0984 15.7498L12.4984 7.44982C11.5984 6.94982 10.8984 7.04982 10.3984 7.54982L22.8984 19.9498L27.0984 15.7498Z" fill="url(#paint3_linear_28_254)"/>
<path opacity="0.2" d="M26.9984 24.0508L12.4984 32.2508C11.6984 32.7508 10.9984 32.6508 10.4984 32.2508L10.3984 32.3508L10.4984 32.4508C10.9984 32.8508 11.6984 32.9508 12.4984 32.4508L26.9984 24.0508Z" fill="black"/>
<path opacity="0.12" d="M10.4 32.2516C10.1 31.9516 10 31.4516 10 30.8516V30.9516C10 31.5516 10.2 32.0516 10.5 32.3516V32.2516H10.4Z" fill="black"/>
<path opacity="0.12" d="M32 21.2492L27 24.0492L27.1 24.1492L32 21.3492C32.7 20.9492 33 20.4492 33 19.9492C33 20.4492 32.6 20.8492 32 21.2492Z" fill="black"/>
<path opacity="0.25" d="M12.5 7.54959L32 18.6496C32.6 19.0496 33 19.4496 33 19.9496C33 19.4496 32.7 18.9496 32 18.5496L12.5 7.44959C11.1 6.64959 10 7.34959 10 8.94959V9.04959C10 7.44959 11.1 6.74959 12.5 7.54959Z" fill="white"/>
<path d="M46.7773 14.3438H46.0312V12.9492H41.9492V14.3477H41.1992L41.1953 12.3359H41.6602C41.9049 12.0599 42.099 11.6901 42.2422 11.2266C42.388 10.7604 42.4792 10.25 42.5156 9.69531L42.6406 7.26172H46.043V12.3359H46.7852L46.7773 14.3438ZM42.5156 12.3359H45.2891V7.87891H43.3633L43.2812 9.55078C43.2474 10.2044 43.1602 10.7617 43.0195 11.2227C42.8815 11.6836 42.7135 12.0547 42.5156 12.3359Z" fill="black"/>
<path d="M52.357 10.2891C52.357 10.8464 52.2633 11.3333 52.0758 11.75C51.8883 12.1641 51.6227 12.4805 51.2789 12.6992C50.9352 12.918 50.5341 13.0273 50.0758 13.0273C49.6279 13.0273 49.2307 12.918 48.8844 12.6992C48.538 12.4779 48.2685 12.1641 48.0758 11.7578C47.8857 11.349 47.788 10.8763 47.7828 10.3398V9.92969C47.7828 9.38281 47.8779 8.89974 48.068 8.48047C48.2581 8.0612 48.5263 7.74089 48.8727 7.51953C49.2216 7.29557 49.6201 7.18359 50.068 7.18359C50.5237 7.18359 50.9247 7.29427 51.2711 7.51562C51.6201 7.73438 51.8883 8.05339 52.0758 8.47266C52.2633 8.88932 52.357 9.375 52.357 9.92969V10.2891ZM51.6109 9.92188C51.6109 9.2474 51.4755 8.73047 51.2047 8.37109C50.9339 8.00911 50.5549 7.82812 50.068 7.82812C49.594 7.82812 49.2203 8.00911 48.9469 8.37109C48.676 8.73047 48.5367 9.23047 48.5289 9.87109V10.2891C48.5289 10.9427 48.6656 11.457 48.9391 11.832C49.2151 12.2044 49.594 12.3906 50.0758 12.3906C50.5602 12.3906 50.9352 12.2148 51.2008 11.8633C51.4664 11.5091 51.6031 11.0026 51.6109 10.3438V9.92188Z" fill="black"/>
<path d="M58.0656 11.1445C57.9953 11.7461 57.7727 12.2109 57.3977 12.5391C57.0253 12.8646 56.5292 13.0273 55.9094 13.0273C55.2375 13.0273 54.6984 12.7865 54.2922 12.3047C53.8885 11.8229 53.6867 11.1784 53.6867 10.3711V9.82422C53.6867 9.29557 53.7805 8.83073 53.968 8.42969C54.1581 8.02865 54.4263 7.72135 54.7727 7.50781C55.119 7.29167 55.5201 7.18359 55.9758 7.18359C56.5799 7.18359 57.0643 7.35286 57.4289 7.69141C57.7935 8.02734 58.0057 8.49349 58.0656 9.08984H57.3117C57.2466 8.63672 57.1047 8.30859 56.8859 8.10547C56.6698 7.90234 56.3664 7.80078 55.9758 7.80078C55.4966 7.80078 55.1203 7.97786 54.8469 8.33203C54.576 8.6862 54.4406 9.1901 54.4406 9.84375V10.3945C54.4406 11.0117 54.5695 11.5026 54.8273 11.8672C55.0852 12.2318 55.4458 12.4141 55.9094 12.4141C56.326 12.4141 56.6451 12.3203 56.8664 12.1328C57.0904 11.9427 57.2388 11.6133 57.3117 11.1445H58.0656Z" fill="black"/>
<path d="M63.3055 7.87891H61.4773V12.9492H60.7313V7.87891H58.907V7.26172H63.3055V7.87891Z" fill="black"/>
<path d="M66.5023 10.5625L67.8109 7.26172H68.682L66.6703 12C66.5349 12.3021 66.4086 12.5169 66.2914 12.6445C66.1742 12.7695 66.0362 12.8659 65.8773 12.9336C65.7211 12.9987 65.5245 13.0312 65.2875 13.0312C65.0818 13.0312 64.9503 13.0195 64.893 12.9961L64.9164 12.4023L65.2719 12.418C65.5453 12.418 65.7484 12.2865 65.8813 12.0234L65.9789 11.8203L66.1273 11.4727L64.1898 7.26172H65.0297L66.5023 10.5625Z" fill="black"/>
<path d="M74.3242 12.9492H73.5703V7.87891H70.7656V12.9492H70.0156V7.26172H74.3242V12.9492Z" fill="black"/>
<path d="M80.4625 12.9492H79.7086V10.3203H76.8414V12.9492H76.0914V7.26172H76.8414V9.70703H79.7086V7.26172H80.4625V12.9492Z" fill="black"/>
<path d="M86.5695 10.2891C86.5695 10.8464 86.4758 11.3333 86.2883 11.75C86.1008 12.1641 85.8352 12.4805 85.4914 12.6992C85.1477 12.918 84.7466 13.0273 84.2883 13.0273C83.8404 13.0273 83.4432 12.918 83.0969 12.6992C82.7505 12.4779 82.481 12.1641 82.2883 11.7578C82.0982 11.349 82.0005 10.8763 81.9953 10.3398V9.92969C81.9953 9.38281 82.0904 8.89974 82.2805 8.48047C82.4706 8.0612 82.7388 7.74089 83.0852 7.51953C83.4341 7.29557 83.8326 7.18359 84.2805 7.18359C84.7362 7.18359 85.1372 7.29427 85.4836 7.51562C85.8326 7.73438 86.1008 8.05339 86.2883 8.47266C86.4758 8.88932 86.5695 9.375 86.5695 9.92969V10.2891ZM85.8234 9.92188C85.8234 9.2474 85.688 8.73047 85.4172 8.37109C85.1464 8.00911 84.7674 7.82812 84.2805 7.82812C83.8065 7.82812 83.4328 8.00911 83.1594 8.37109C82.8885 8.73047 82.7492 9.23047 82.7414 9.87109V10.2891C82.7414 10.9427 82.8781 11.457 83.1516 11.832C83.4276 12.2044 83.8065 12.3906 84.2883 12.3906C84.7727 12.3906 85.1477 12.2148 85.4133 11.8633C85.6789 11.5091 85.8156 11.0026 85.8234 10.3438V9.92188Z" fill="black"/>
<path d="M90.4789 12.9492V7.26172H92.3383C92.9555 7.26172 93.419 7.38932 93.7289 7.64453C94.0414 7.89974 94.1977 8.27734 94.1977 8.77734C94.1977 9.04297 94.1221 9.27865 93.9711 9.48438C93.8201 9.6875 93.6143 9.84505 93.3539 9.95703C93.6612 10.043 93.9034 10.207 94.0805 10.4492C94.2602 10.6888 94.35 10.9753 94.35 11.3086C94.35 11.819 94.1846 12.2201 93.8539 12.5117C93.5232 12.8034 93.0557 12.9492 92.4516 12.9492H90.4789ZM91.2289 10.2891V12.3359H92.4672C92.8161 12.3359 93.0909 12.2461 93.2914 12.0664C93.4945 11.8841 93.5961 11.6341 93.5961 11.3164C93.5961 10.6315 93.2237 10.2891 92.4789 10.2891H91.2289ZM91.2289 9.6875H92.3617C92.6898 9.6875 92.9516 9.60547 93.1469 9.44141C93.3448 9.27734 93.4437 9.05469 93.4437 8.77344C93.4437 8.46094 93.3526 8.23438 93.1703 8.09375C92.988 7.95052 92.7107 7.87891 92.3383 7.87891H91.2289V9.6875Z" fill="black"/>
<defs>
<linearGradient id="paint0_linear_28_254" x1="21.7981" y1="8.65892" x2="5.01574" y2="25.4413" gradientUnits="userSpaceOnUse">
<stop stop-color="#00A0FF"/>
<stop offset="0.00657445" stop-color="#00A1FF"/>
<stop offset="0.2601" stop-color="#00BEFF"/>
<stop offset="0.5122" stop-color="#00D2FF"/>
<stop offset="0.7604" stop-color="#00DFFF"/>
<stop offset="1" stop-color="#00E3FF"/>
</linearGradient>
<linearGradient id="paint1_linear_28_254" x1="33.8328" y1="19.9514" x2="9.63594" y2="19.9514" gradientUnits="userSpaceOnUse">
<stop stop-color="#FFE000"/>
<stop offset="0.4087" stop-color="#FFBD00"/>
<stop offset="0.7754" stop-color="#FFA500"/>
<stop offset="1" stop-color="#FF9C00"/>
</linearGradient>
<linearGradient id="paint2_linear_28_254" x1="24.8254" y1="22.2453" x2="2.06714" y2="45.0036" gradientUnits="userSpaceOnUse">
<stop stop-color="#FF3A44"/>
<stop offset="1" stop-color="#C31162"/>
</linearGradient>
<linearGradient id="paint3_linear_28_254" x1="7.29574" y1="0.126019" x2="17.4583" y2="10.2885" gradientUnits="userSpaceOnUse">
<stop stop-color="#32A071"/>
<stop offset="0.0685" stop-color="#2DA771"/>
<stop offset="0.4762" stop-color="#15CF74"/>
<stop offset="0.8009" stop-color="#06E775"/>
<stop offset="1" stop-color="#00F076"/>
</linearGradient>
</defs>
</svg>
