<svg width="23" height="22" viewBox="0 0 23 22" fill="none" xmlns="http://www.w3.org/2000/svg">
<path fill-rule="evenodd" clip-rule="evenodd" d="M22.1188 19.3578L16.8779 14.1164C17.8962 12.6603 18.4982 10.8918 18.4982 8.97959C18.4982 4.02016 14.4781 0 9.51865 0C4.55923 0 0.539062 4.02016 0.539062 8.97959C0.539062 13.939 4.55923 17.9592 9.51865 17.9592C11.4304 17.9592 13.1994 17.3571 14.6554 16.3388L19.8968 21.5802L22.1188 19.3578V19.3578ZM3.68192 8.97959C3.68192 5.76131 6.29992 3.14286 9.51865 3.14286C12.7369 3.14286 15.3554 5.76131 15.3554 8.97959C15.3554 12.1979 12.7369 14.8163 9.51865 14.8163C6.29992 14.8163 3.68192 12.1979 3.68192 8.97959V8.97959Z" fill="#0094DF"/>
</svg>
