<svg width="152" height="52" viewBox="0 0 152 52" fill="none" xmlns="http://www.w3.org/2000/svg">
<circle cx="50.5" cy="14.5" r="4.5" fill="#E42469"/>
<path d="M8.72828 28.9894L0.6875 1.00423H5.95645L10.9945 20.8186L15.9467 1.00423H20.0259L24.9506 20.8186L30.035 1.00423H35.304L27.2168 28.9894H22.8355L17.9631 10.3595L13.1474 28.9894H8.72828Z" fill="#00A1F1"/>
<path fill-rule="evenodd" clip-rule="evenodd" d="M67.9979 0.732782V28.9894H72.994V18.5303H73.164L80.5292 28.9894H86.8557L78.9239 18.5303C81.1902 18.3411 83.022 17.3766 84.4384 15.7122C85.8359 14.01 86.5535 12.0052 86.5535 9.69773C86.5535 6.91746 85.6282 4.74242 83.7963 3.13478C81.9644 1.52714 79.3394 0.732782 75.9401 0.732782H67.9979ZM72.994 14.1802V5.74483H76.0912C77.6964 5.74483 78.9617 6.10418 79.8871 6.78506C80.8124 7.48486 81.3035 8.54401 81.3223 9.96251C81.3223 11.4188 80.8502 12.478 79.906 13.1589C78.9617 13.8398 77.6964 14.1802 76.0912 14.1802H72.994Z" fill="#00A1F1"/>
<path d="M90.0025 28.9894V1.00705H95.4452V12.9887L104.208 1.00705H110.346L99.751 14.6341L110.327 28.9894H104.208L95.4452 16.62V28.9894H90.0025Z" fill="#00A1F1"/>
<path d="M112.998 28.9962V25.0068H116.995V28.9962H112.998Z" fill="#00A1F1"/>
<path d="M133.001 14.0076V28.9893H129.677V27.5897H129.62C129.129 28.195 128.563 28.6489 127.902 28.9893C127.241 29.3109 126.523 29.4811 125.711 29.4811C123.672 29.4811 122.142 28.8569 121.122 27.5897C120.102 26.3226 119.611 24.488 119.63 22.086V14.0076H123.256V21.5942C123.237 23.164 123.483 24.2988 123.993 25.0175C124.503 25.7362 125.277 26.0767 126.334 26.0767C127.354 26.0956 128.128 25.7362 128.638 25.0175C129.148 24.2988 129.394 23.164 129.394 21.5942V14.0076H133.001Z" fill="#00A1F1"/>
<path fill-rule="evenodd" clip-rule="evenodd" d="M150.994 28.9893V14.0041H147.67V16.0526H147.613C147.066 15.2015 146.367 14.5584 145.536 14.1045C144.705 13.6695 143.761 13.4425 142.703 13.4425C140.607 13.4425 138.832 14.218 137.396 15.7689C135.961 17.3198 135.244 19.2679 135.244 21.6131C135.244 23.9584 135.961 25.8686 137.415 27.325C138.851 28.7813 140.588 29.5 142.59 29.5C143.553 29.4811 144.459 29.2541 145.347 28.8569C146.235 28.4598 146.971 27.8167 147.613 26.9656H147.67V28.9893H150.994ZM140.097 18.1709C140.909 17.282 141.967 16.828 143.27 16.828C144.554 16.828 145.593 17.263 146.405 18.1331C147.198 19.0031 147.594 20.1 147.594 21.4051C147.594 22.8047 147.198 23.9206 146.405 24.7717C145.611 25.6228 144.573 26.0578 143.289 26.0578C141.967 26.0578 140.89 25.6228 140.078 24.7906C139.247 23.9584 138.851 22.8803 138.869 21.5753C138.869 20.2135 139.285 19.0787 140.097 18.1709Z" fill="#00A1F1"/>
<path fill-rule="evenodd" clip-rule="evenodd" d="M50.4987 29C58.5068 29 64.9987 22.5081 64.9987 14.5C64.9987 6.49187 58.5068 0 50.4987 0C42.4905 0 35.9987 6.49187 35.9987 14.5C35.9987 22.5081 42.4905 29 50.4987 29ZM50.4987 24C55.7454 24 59.9987 19.7467 59.9987 14.5C59.9987 9.25329 55.7454 5 50.4987 5C45.252 5 40.9987 9.25329 40.9987 14.5C40.9987 19.7467 45.252 24 50.4987 24Z" fill="#00A1F1"/>
<path d="M8.4209 41.0879H12.7764V47.4014H13.4209V49.916H12.5762V48.2461H7.84473V49.916H7V47.4014H7.55664C8.13281 46.5322 8.4209 44.776 8.4209 42.1328V41.0879ZM11.8291 41.9326H9.33398V42.2988C9.33398 42.9076 9.27865 43.7409 9.16797 44.7988C9.06055 45.8535 8.84733 46.721 8.52832 47.4014H11.8291V41.9326ZM17.2713 41.0879H21.7537V48.2461H20.8064V41.9326H18.2186V45.6191C18.2186 46.3678 18.1827 46.9163 18.1111 47.2646C18.0428 47.613 17.8963 47.8848 17.6717 48.0801C17.4471 48.2721 17.1622 48.3682 16.8172 48.3682C16.6089 48.3682 16.3582 48.3291 16.0652 48.251L16.2264 47.4111C16.3826 47.4762 16.5161 47.5088 16.6268 47.5088C16.8416 47.5088 17.0027 47.429 17.1102 47.2695C17.2176 47.1068 17.2713 46.7259 17.2713 46.127V41.0879ZM31.1754 48.2461V41.0879H28.0016C27.3635 41.0879 26.8785 41.153 26.5465 41.2832C26.2145 41.4102 25.9492 41.6364 25.7506 41.9619C25.552 42.2874 25.4527 42.6471 25.4527 43.041C25.4527 43.5488 25.6171 43.9769 25.9459 44.3252C26.2747 44.6735 26.7825 44.8949 27.4693 44.9893C27.2187 45.1097 27.0283 45.2285 26.898 45.3457C26.6214 45.5996 26.3593 45.917 26.1119 46.2979L24.8668 48.2461H26.0582L27.0055 46.7568C27.2822 46.3271 27.51 45.9984 27.6891 45.7705C27.8681 45.5426 28.0276 45.3831 28.1676 45.292C28.3108 45.2008 28.4557 45.1374 28.6021 45.1016C28.7096 45.0788 28.8854 45.0674 29.1295 45.0674H30.2281V48.2461H31.1754ZM30.2281 44.2471H28.192C27.759 44.2471 27.4205 44.2031 27.1764 44.1152C26.9322 44.0241 26.7467 43.8809 26.6197 43.6855C26.4928 43.487 26.4293 43.2721 26.4293 43.041C26.4293 42.7025 26.5514 42.4242 26.7955 42.2061C27.0429 41.988 27.4319 41.8789 27.9625 41.8789H30.2281V44.2471ZM39.9211 48.2461V41.0879H42.6213C43.0965 41.0879 43.4595 41.1107 43.7102 41.1562C44.0617 41.2148 44.3563 41.3271 44.5939 41.4932C44.8316 41.6559 45.022 41.8854 45.1652 42.1816C45.3117 42.4779 45.385 42.8034 45.385 43.1582C45.385 43.7669 45.1913 44.2829 44.8039 44.7061C44.4165 45.126 43.7167 45.3359 42.7043 45.3359H40.8684V48.2461H39.9211ZM40.8684 44.4912H42.7189C43.3309 44.4912 43.7655 44.3773 44.0227 44.1494C44.2798 43.9215 44.4084 43.6009 44.4084 43.1875C44.4084 42.888 44.3319 42.6325 44.1789 42.4209C44.0292 42.2061 43.8306 42.0645 43.5832 41.9961C43.4237 41.9538 43.1291 41.9326 42.6994 41.9326H40.8684V44.4912ZM47.3311 48.2461L50.0801 41.0879H51.1006L54.0303 48.2461H52.9512L52.1162 46.0781H49.123L48.3369 48.2461H47.3311ZM49.3965 45.3066H51.8232L51.0762 43.3242C50.8483 42.722 50.679 42.2272 50.5684 41.8398C50.4772 42.2988 50.3486 42.7546 50.1826 43.207L49.3965 45.3066ZM57.0311 41.0879H61.6746V41.9326H57.9783V44.1396H59.6873C60.3188 44.1396 60.8201 44.1999 61.1912 44.3203C61.5656 44.4408 61.865 44.6686 62.0896 45.0039C62.3143 45.3359 62.4266 45.7233 62.4266 46.166C62.4266 46.5273 62.3452 46.8659 62.1824 47.1816C62.0229 47.4941 61.7837 47.7497 61.4646 47.9482C61.1456 48.1468 60.602 48.2461 59.8338 48.2461H57.0311V41.0879ZM57.9783 47.4404H59.8729C60.3839 47.4404 60.7664 47.3363 61.0203 47.1279C61.2775 46.9196 61.4061 46.6071 61.4061 46.1904C61.4061 45.8942 61.3328 45.6468 61.1863 45.4482C61.0398 45.2497 60.8364 45.1178 60.576 45.0527C60.3156 44.9876 59.8712 44.9551 59.243 44.9551H57.9783V47.4404ZM65.3443 44.7598C65.3443 43.5716 65.6633 42.6423 66.3014 41.9717C66.9394 41.2979 67.763 40.9609 68.7721 40.9609C69.4329 40.9609 70.0286 41.1188 70.5592 41.4346C71.0898 41.7503 71.4934 42.1914 71.7701 42.7578C72.0501 43.321 72.19 43.9606 72.19 44.6768C72.19 45.4027 72.0436 46.0521 71.7506 46.625C71.4576 47.1979 71.0426 47.6325 70.5055 47.9287C69.9684 48.2217 69.3889 48.3682 68.7672 48.3682C68.0934 48.3682 67.4911 48.2054 66.9605 47.8799C66.4299 47.5544 66.0279 47.11 65.7545 46.5469C65.4811 45.9837 65.3443 45.388 65.3443 44.7598ZM66.3209 44.7744C66.3209 45.637 66.552 46.3174 67.0143 46.8154C67.4798 47.3102 68.0624 47.5576 68.7623 47.5576C69.4752 47.5576 70.0611 47.307 70.5201 46.8057C70.9824 46.3044 71.2135 45.5931 71.2135 44.6719C71.2135 44.0892 71.1142 43.5814 70.9156 43.1484C70.7203 42.7122 70.4322 42.3753 70.0514 42.1377C69.6738 41.8968 69.249 41.7764 68.777 41.7764C68.1064 41.7764 67.5286 42.0075 67.0436 42.4697C66.5618 42.9287 66.3209 43.6969 66.3209 44.7744ZM77.4369 48.2461V41.9326H75.0785V41.0879H80.7523V41.9326H78.3842V48.2461H77.4369ZM83.1916 44.7598C83.1916 43.5716 83.5106 42.6423 84.1486 41.9717C84.7867 41.2979 85.6102 40.9609 86.6193 40.9609C87.2801 40.9609 87.8758 41.1188 88.4064 41.4346C88.937 41.7503 89.3407 42.1914 89.6174 42.7578C89.8973 43.321 90.0373 43.9606 90.0373 44.6768C90.0373 45.4027 89.8908 46.0521 89.5979 46.625C89.3049 47.1979 88.8898 47.6325 88.3527 47.9287C87.8156 48.2217 87.2362 48.3682 86.6145 48.3682C85.9406 48.3682 85.3384 48.2054 84.8078 47.8799C84.2772 47.5544 83.8752 47.11 83.6018 46.5469C83.3283 45.9837 83.1916 45.388 83.1916 44.7598ZM84.1682 44.7744C84.1682 45.637 84.3993 46.3174 84.8615 46.8154C85.327 47.3102 85.9097 47.5576 86.6096 47.5576C87.3225 47.5576 87.9084 47.307 88.3674 46.8057C88.8296 46.3044 89.0607 45.5931 89.0607 44.6719C89.0607 44.0892 88.9615 43.5814 88.7629 43.1484C88.5676 42.7122 88.2795 42.3753 87.8986 42.1377C87.521 41.8968 87.0962 41.7764 86.6242 41.7764C85.9536 41.7764 85.3758 42.0075 84.8908 42.4697C84.4091 42.9287 84.1682 43.6969 84.1682 44.7744ZM93.8877 41.0879H98.2432V47.4014H98.8877V49.916H98.043V48.2461H93.3115V49.916H92.4668V47.4014H93.0234C93.5996 46.5322 93.8877 44.776 93.8877 42.1328V41.0879ZM97.2959 41.9326H94.8008V42.2988C94.8008 42.9076 94.7454 43.7409 94.6348 44.7988C94.5273 45.8535 94.3141 46.721 93.9951 47.4014H97.2959V41.9326ZM101.429 48.2461L104.179 41.0879H105.199L108.129 48.2461H107.05L106.215 46.0781H103.221L102.435 48.2461H101.429ZM103.495 45.3066H105.922L105.175 43.3242C104.947 42.722 104.777 42.2272 104.667 41.8398C104.576 42.2988 104.447 42.7546 104.281 43.207L103.495 45.3066ZM112.126 48.2461V41.9326H109.767V41.0879H115.441V41.9326H113.073V48.2461H112.126ZM118.637 48.2461V41.0879H123.813V41.9326H119.584V44.125H123.544V44.9648H119.584V47.4014H123.979V48.2461H118.637ZM128.01 41.0879H132.492V48.2461H131.545V41.9326H128.957V45.6191C128.957 46.3678 128.921 46.9163 128.85 47.2646C128.781 47.613 128.635 47.8848 128.41 48.0801C128.186 48.2721 127.901 48.3682 127.556 48.3682C127.348 48.3682 127.097 48.3291 126.804 48.251L126.965 47.4111C127.121 47.4762 127.255 47.5088 127.365 47.5088C127.58 47.5088 127.741 47.429 127.849 47.2695C127.956 47.1068 128.01 46.7259 128.01 46.127V41.0879ZM136.27 48.2461V41.0879H141.445V41.9326H137.217V44.125H141.177V44.9648H137.217V47.4014H141.611V48.2461H136.27ZM145.135 41.0879H145.994V46.7568L149.803 41.0879H150.755V48.2461H149.895V42.5918L146.082 48.2461H145.135V41.0879ZM148.694 39.3838H149.295C149.246 39.7907 149.096 40.1032 148.846 40.3213C148.598 40.5394 148.268 40.6484 147.854 40.6484C147.438 40.6484 147.104 40.541 146.853 40.3262C146.606 40.1081 146.458 39.7939 146.409 39.3838H147.01C147.055 39.6051 147.145 39.7712 147.278 39.8818C147.415 39.9893 147.597 40.043 147.825 40.043C148.089 40.043 148.287 39.9909 148.421 39.8867C148.557 39.7793 148.649 39.6117 148.694 39.3838Z" fill="#E42469"/>
</svg>
